<svg width="13" height="15" viewBox="0 0 13 15" fill="none" xmlns="http://www.w3.org/2000/svg">
<path d="M11.8125 1.625H8.53125L8.25781 1.13281C8.14844 0.914062 7.92969 0.75 7.68359 0.75H4.53906C4.29297 0.75 4.07422 0.914062 3.96484 1.13281L3.71875 1.625H0.4375C0.191406 1.625 0 1.84375 0 2.0625V2.9375C0 3.18359 0.191406 3.375 0.4375 3.375H11.8125C12.0312 3.375 12.25 3.18359 12.25 2.9375V2.0625C12.25 1.84375 12.0312 1.625 11.8125 1.625ZM1.44922 13.5195C1.47656 14.2305 2.05078 14.75 2.76172 14.75H9.46094C10.1719 14.75 10.7461 14.2305 10.7734 13.5195L11.375 4.25H0.875L1.44922 13.5195Z" fill="#FFFFFF"/>
</svg>
